<?xml version="1.0" encoding="UTF-8"?>
<!DOCTYPE svg PUBLIC "-//W3C//DTD SVG 1.1//EN" "http://www.w3.org/Graphics/SVG/1.1/DTD/svg11.dtd">
<!-- Creator: CorelDRAW -->
<svg xmlns="http://www.w3.org/2000/svg" xml:space="preserve" width="42.3332mm" height="42.3332mm" version="1.1" style="shape-rendering:geometricPrecision; text-rendering:geometricPrecision; image-rendering:optimizeQuality; fill-rule:evenodd; clip-rule:evenodd"
viewBox="0 0 4233.32 4233.32"
 xmlns:xlink="http://www.w3.org/1999/xlink"
 xmlns:xodm="http://www.corel.com/coreldraw/odm/2003">
 <defs>
  <style type="text/css">
   <![CDATA[
    .fil0 {fill:#0E0F11}
    .fil2 {fill:#2763E9;fill-rule:nonzero}
    .fil1 {fill:white;fill-rule:nonzero}
   ]]>
  </style>
 </defs>
 <g id="Layer_x0020_1">
  <metadata id="CorelCorpID_0Corel-Layer"/>
  <rect class="fil0" x="-0.01" y="-0.01" width="4233.33" height="4233.33"/>
  <polygon class="fil1" points="1088.8,2412.99 1088.8,1820.32 1200.56,1820.32 1200.56,2412.99 "/>
  <path id="_1" class="fil1" d="M1295.39 2412.99l0 -98.21 77.89 0 0 -396.25 -77.89 0 0 -98.21 243.84 0c79.58,0 140.12,20.18 181.61,60.54 41.49,40.36 62.23,100.33 62.23,179.92l0 111.76c0,79.58 -20.74,139.56 -62.23,179.91 -41.49,40.36 -102.03,60.54 -181.61,60.54l-243.84 0zm189.65 -101.6l55.88 0c45.16,0 78.18,-11.85 99.06,-35.56 20.89,-23.71 31.33,-57.01 31.33,-99.91l0 -118.53c0,-43.46 -10.44,-76.91 -31.33,-100.33 -20.88,-23.43 -53.9,-35.14 -99.06,-35.14l-55.88 0 0 389.47z"/>
  <path id="_2" class="fil1" d="M2081.09 2424.84c-40.64,0 -77.47,-9.17 -110.49,-27.51 -33.02,-18.35 -59.26,-45.16 -78.74,-80.44 -19.47,-35.27 -29.21,-78.31 -29.21,-129.11l0 -142.24c0,-76.21 21.45,-134.77 64.35,-175.69 42.9,-40.92 101.04,-61.38 174.41,-61.38 72.82,0 129.12,19.33 168.92,57.99 39.79,38.67 59.69,91.02 59.69,157.06l0 3.39 -110.07 0 0 -6.77c0,-20.89 -4.38,-39.8 -13.13,-56.73 -8.74,-16.94 -21.87,-30.34 -39.37,-40.22 -17.49,-9.88 -39.51,-14.82 -66.04,-14.82 -39.51,0 -70.55,12.14 -93.13,36.41 -22.58,24.27 -33.87,57.29 -33.87,99.06l0 145.63c0,41.2 11.29,74.36 33.87,99.48 22.58,25.12 54.19,37.68 94.83,37.68 40.64,0 70.27,-10.72 88.9,-32.17 18.62,-21.45 27.94,-48.55 27.94,-81.28l0 -8.47 -140.55 0 0 -94.83 250.62 0 0 303.11 -103.3 0 0 -56.73 -15.24 0c-3.95,9.6 -10.3,19.76 -19.05,30.48 -8.75,10.73 -21.87,19.76 -39.37,27.1 -17.5,7.33 -41.49,11 -71.97,11z"/>
  <path id="_3" class="fil1" d="M2666.99 2424.84c-74.5,0 -133.77,-20.46 -177.8,-61.38 -44.02,-40.92 -66.04,-99.48 -66.04,-175.68l0 -142.24c0,-76.21 22.02,-134.77 66.04,-175.69 44.03,-40.92 103.3,-61.38 177.8,-61.38 74.51,0 133.78,20.46 177.81,61.38 44.02,40.92 66.04,99.48 66.04,175.69l0 142.24c0,76.2 -22.02,134.76 -66.04,175.68 -44.03,40.92 -103.3,61.38 -177.81,61.38zm0 -99.9c41.77,0 74.23,-12.14 97.37,-36.41 23.14,-24.27 34.71,-56.73 34.71,-97.37l0 -149.01c0,-40.64 -11.57,-73.1 -34.71,-97.37 -23.14,-24.27 -55.6,-36.41 -97.37,-36.41 -41.2,0 -73.51,12.14 -96.94,36.41 -23.42,24.27 -35.14,56.73 -35.14,97.37l0 149.01c0,40.64 11.72,73.1 35.14,97.37 23.43,24.27 55.74,36.41 96.94,36.41z"/>
  <path id="_4" class="fil2" d="M3064.08 2424.84c-22.57,0 -41.62,-7.48 -57.15,-22.43 -15.52,-14.96 -23.28,-34.29 -23.28,-58 0,-23.71 7.76,-43.04 23.28,-58 15.53,-14.96 34.58,-22.43 57.15,-22.43 23.15,0 42.34,7.62 57.58,22.86 15.24,15.24 22.86,34.71 22.86,58.42 0,23.14 -7.62,42.19 -22.86,57.15 -15.24,14.95 -34.43,22.43 -57.58,22.43z"/>
 </g>
</svg>
